<svg version="1.1" viewBox="0.0 0.0 651.6089238845144 592.5590551181102" fill="none" stroke="none" stroke-linecap="square" stroke-miterlimit="10" xmlns:xlink="http://www.w3.org/1999/xlink" xmlns="http://www.w3.org/2000/svg"><clipPath id="p.0"><path d="m0 0l651.60895 0l0 592.5591l-651.60895 0l0 -592.5591z" clip-rule="nonzero"/></clipPath><g clip-path="url(#p.0)"><path fill="#000000" fill-opacity="0.0" d="m0 0l651.60895 0l0 592.5591l-651.60895 0z" fill-rule="evenodd"/><path fill="#b45f06" d="m215.50656 448.4882l211.02362 0l0 331.62204l-211.02362 0z" fill-rule="evenodd"/><path stroke="#783f04" stroke-width="12.0" stroke-linejoin="round" stroke-linecap="butt" d="m215.50656 448.4882l211.02362 0l0 331.62204l-211.02362 0z" fill-rule="evenodd"/><path fill="#fce5cd" d="m46.228348 201.99213l0 0c0 -36.250748 29.36589 -65.6378 65.59055 -65.6378l0 0c17.395699 0 34.07891 6.91539 46.379524 19.224869c12.300613 12.309479 19.21103 29.0047 19.21103 46.412933l0 0c0 36.250748 -29.36589 65.63779 -65.59055 65.63779l0 0c-36.224663 0 -65.59055 -29.38704 -65.59055 -65.63779z" fill-rule="evenodd"/><path stroke="#783f04" stroke-width="12.0" stroke-linejoin="round" stroke-linecap="butt" d="m46.228348 201.99213l0 0c0 -36.250748 29.36589 -65.6378 65.59055 -65.6378l0 0c17.395699 0 34.07891 6.91539 46.379524 19.224869c12.300613 12.309479 19.21103 29.0047 19.21103 46.412933l0 0c0 36.250748 -29.36589 65.63779 -65.59055 65.63779l0 0c-36.224663 0 -65.59055 -29.38704 -65.59055 -65.63779z" fill-rule="evenodd"/><path fill="#fce5cd" d="m466.48294 210.8189l0 0c0 -36.250748 29.365875 -65.63779 65.590546 -65.63779l0 0c17.39569 0 34.07892 6.91539 46.379517 19.224854c12.300598 12.309479 19.21106 29.004715 19.21106 46.412933l0 0c0 36.250763 -29.365906 65.6378 -65.590576 65.6378l0 0c-36.22467 0 -65.590546 -29.38704 -65.590546 -65.6378z" fill-rule="evenodd"/><path stroke="#783f04" stroke-width="12.0" stroke-linejoin="round" stroke-linecap="butt" d="m466.48294 210.8189l0 0c0 -36.250748 29.365875 -65.63779 65.590546 -65.63779l0 0c17.39569 0 34.07892 6.91539 46.379517 19.224854c12.300598 12.309479 19.21106 29.004715 19.21106 46.412933l0 0c0 36.250763 -29.365906 65.6378 -65.590576 65.6378l0 0c-36.22467 0 -65.590546 -29.38704 -65.590546 -65.6378z" fill-rule="evenodd"/><path fill="#b45f06" d="m113.538055 256.9134l0 0c0 -119.493546 92.892105 -216.36221 207.48032 -216.36221l0 0c55.02719 0 107.80063 22.795238 146.71072 63.37102c38.910126 40.575783 60.76956 95.60836 60.76956 152.99118l0 0c0 119.49353 -92.89206 216.36221 -207.48029 216.36221l0 0c-114.58821 0 -207.48032 -96.86868 -207.48032 -216.36221z" fill-rule="evenodd"/><path stroke="#783f04" stroke-width="12.0" stroke-linejoin="round" stroke-linecap="butt" d="m113.538055 256.9134l0 0c0 -119.493546 92.892105 -216.36221 207.48032 -216.36221l0 0c55.02719 0 107.80063 22.795238 146.71072 63.37102c38.910126 40.575783 60.76956 95.60836 60.76956 152.99118l0 0c0 119.49353 -92.89206 216.36221 -207.48029 216.36221l0 0c-114.58821 0 -207.48032 -96.86868 -207.48032 -216.36221z" fill-rule="evenodd"/><path fill="#ffffff" d="m192.5853 226.75066l0 0c0 -64.63905 29.36589 -117.03937 65.590546 -117.03937l0 0c17.395721 0 34.07892 12.330894 46.379547 34.28003c12.300598 21.949142 19.21103 51.718567 19.21103 82.75934l0 0c0 64.63905 -29.365906 117.03938 -65.590576 117.03938l0 0c-36.224655 0 -65.590546 -52.40033 -65.590546 -117.03938z" fill-rule="evenodd"/><path stroke="#000000" stroke-width="12.0" stroke-linejoin="round" stroke-linecap="butt" d="m192.5853 226.75066l0 0c0 -64.63905 29.36589 -117.03937 65.590546 -117.03937l0 0c17.395721 0 34.07892 12.330894 46.379547 34.28003c12.300598 21.949142 19.21103 51.718567 19.21103 82.75934l0 0c0 64.63905 -29.365906 117.03938 -65.590576 117.03938l0 0c-36.224655 0 -65.590546 -52.40033 -65.590546 -117.03938z" fill-rule="evenodd"/><path fill="#ffffff" d="m323.7651 226.75066l0 0c0 -64.63905 29.365875 -117.03937 65.590546 -117.03937l0 0c17.39569 0 34.078888 12.330894 46.379517 34.28003c12.300598 21.949142 19.21103 51.718567 19.21103 82.75934l0 0c0 64.63905 -29.365906 117.03938 -65.590546 117.03938l0 0c-36.22467 0 -65.590546 -52.40033 -65.590546 -117.03938z" fill-rule="evenodd"/><path stroke="#000000" stroke-width="12.0" stroke-linejoin="round" stroke-linecap="butt" d="m323.7651 226.75066l0 0c0 -64.63905 29.365875 -117.03937 65.590546 -117.03937l0 0c17.39569 0 34.078888 12.330894 46.379517 34.28003c12.300598 21.949142 19.21103 51.718567 19.21103 82.75934l0 0c0 64.63905 -29.365906 117.03938 -65.590546 117.03938l0 0c-36.22467 0 -65.590546 -52.40033 -65.590546 -117.03938z" fill-rule="evenodd"/><path fill="#000000" d="m227.84514 210.8189l0 0c0 -18.116669 13.579529 -32.803146 30.330704 -32.803146l0 0c8.04422 0 15.758942 3.4560394 21.447052 9.607819c5.6881104 6.151779 8.883667 14.495392 8.883667 23.195328l0 0c0 18.116684 -13.579529 32.803146 -30.330719 32.803146l0 0c-16.751175 0 -30.330704 -14.686462 -30.330704 -32.803146z" fill-rule="evenodd"/><path stroke="#000000" stroke-width="12.0" stroke-linejoin="round" stroke-linecap="butt" d="m227.84514 210.8189l0 0c0 -18.116669 13.579529 -32.803146 30.330704 -32.803146l0 0c8.04422 0 15.758942 3.4560394 21.447052 9.607819c5.6881104 6.151779 8.883667 14.495392 8.883667 23.195328l0 0c0 18.116684 -13.579529 32.803146 -30.330719 32.803146l0 0c-16.751175 0 -30.330704 -14.686462 -30.330704 -32.803146z" fill-rule="evenodd"/><path fill="#000000" d="m364.79398 210.8189l0 0c0 -18.116669 13.579498 -32.803146 30.330688 -32.803146l0 0c8.04422 0 15.758942 3.4560394 21.447052 9.607819c5.6881104 6.151779 8.883667 14.495392 8.883667 23.195328l0 0c0 18.116684 -13.579529 32.803146 -30.330719 32.803146l0 0c-16.75119 0 -30.330688 -14.686462 -30.330688 -32.803146z" fill-rule="evenodd"/><path stroke="#000000" stroke-width="12.0" stroke-linejoin="round" stroke-linecap="butt" d="m364.79398 210.8189l0 0c0 -18.116669 13.579498 -32.803146 30.330688 -32.803146l0 0c8.04422 0 15.758942 3.4560394 21.447052 9.607819c5.6881104 6.151779 8.883667 14.495392 8.883667 23.195328l0 0c0 18.116684 -13.579529 32.803146 -30.330719 32.803146l0 0c-16.75119 0 -30.330688 -14.686462 -30.330688 -32.803146z" fill-rule="evenodd"/><path fill="#fce5cd" d="m69.2021 357.99213l0 0c0 -78.35486 112.3448 -141.87402 250.92912 -141.87402l0 0c138.58435 0 250.92914 63.519165 250.92914 141.87402l0 0c0 78.35486 -112.34479 141.87402 -250.92914 141.87402l0 0c-138.58432 0 -250.92912 -63.519165 -250.92912 -141.87402z" fill-rule="evenodd"/><path stroke="#783f04" stroke-width="12.0" stroke-linejoin="round" stroke-linecap="butt" d="m69.2021 357.99213l0 0c0 -78.35486 112.3448 -141.87402 250.92912 -141.87402l0 0c138.58435 0 250.92914 63.519165 250.92914 141.87402l0 0c0 78.35486 -112.34479 141.87402 -250.92914 141.87402l0 0c-138.58432 0 -250.92912 -63.519165 -250.92912 -141.87402z" fill-rule="evenodd"/><path fill="#000000" d="m273.45932 288.92914l0 0c0 -18.116669 20.446838 -32.80316 45.66928 -32.80316l0 0c25.222473 0 45.66931 14.686493 45.66931 32.80316l0 0c0 18.116669 -20.446838 32.80313 -45.66931 32.80313l0 0c-25.222443 0 -45.66928 -14.686462 -45.66928 -32.80313z" fill-rule="evenodd"/><path stroke="#000000" stroke-width="12.0" stroke-linejoin="round" stroke-linecap="butt" d="m273.45932 288.92914l0 0c0 -18.116669 20.446838 -32.80316 45.66928 -32.80316l0 0c25.222473 0 45.66931 14.686493 45.66931 32.80316l0 0c0 18.116669 -20.446838 32.80313 -45.66931 32.80313l0 0c-25.222443 0 -45.66928 -14.686462 -45.66928 -32.80313z" fill-rule="evenodd"/><path fill="#000000" d="m505.13806 359.86395l0 0c1.9051819 31.132507 -30.285278 60.343353 -84.15726 76.36755c-53.87198 16.0242 -121.007904 16.35794 -175.51712 0.87246704c-54.5092 -15.485443 -87.87453 -44.370453 -87.22879 -75.515656z" fill-rule="evenodd"/><path stroke="#000000" stroke-width="12.0" stroke-linejoin="round" stroke-linecap="butt" d="m505.13806 359.86395l0 0c1.9051819 31.132507 -30.285278 60.343353 -84.15726 76.36755c-53.87198 16.0242 -121.007904 16.35794 -175.51712 0.87246704c-54.5092 -15.485443 -87.87453 -44.370453 -87.22879 -75.515656z" fill-rule="evenodd"/></g></svg>